<?xml version="1.0" encoding="UTF-8"?>
<svg width="89px" height="26px" viewBox="0 0 89 26" version="1.1" xmlns="http://www.w3.org/2000/svg" xmlns:xlink="http://www.w3.org/1999/xlink">
    <!-- Generator: Sketch 52.4 (67378) - http://www.bohemiancoding.com/sketch -->
    <title>BBC</title>
    <desc>Created with Sketch.</desc>
    <g id="Page-3" stroke="none" stroke-width="1" fill="none" fill-rule="evenodd">
        <g id="Desktop-HD" transform="translate(-1104.000000, -1671.000000)" fill="#FFFFFF" fill-rule="nonzero">
            <g id="Press-logos" transform="translate(246.000000, 1668.000000)">
                <g id="BBC" transform="translate(858.253136, 2.088475)">
                    <g id="Group" transform="translate(44.401659, 13.620115) scale(-1, 1) rotate(-180.000000) translate(-44.401659, -13.620115) translate(30.901659, 0.620115)">
                        <path d="M17.16396,9.10054886 C17.16396,6.33349009 13.7795172,6.49754593 13.7795172,6.49754593 L10.3950744,6.49754593 L10.3950744,11.4986665 L13.7795172,11.4986665 C17.264768,11.5190812 17.16396,9.10054886 17.16396,9.10054886 L17.16396,9.10054886 Z M10.3950744,19.1234506 L12.973778,19.1234506 C15.653048,18.9798095 15.55224,16.9508791 15.55224,16.9508791 C15.55224,14.4297811 12.5908525,14.3887056 12.5908525,14.3887056 L10.3950744,14.3887056 L10.3950744,19.1234506 Z M16.5395303,13.4048625 C16.5395303,13.4048625 18.8561814,14.4091204 18.8361165,17.0738595 C18.8361165,17.0738595 19.1883403,21.4394173 13.5024763,21.9724144 L7.19194098,21.9724144 L7.19194098,3.66899696 L14.4242535,3.66899696 C14.4242535,3.66899696 20.4679014,3.64833625 20.4679014,8.83417334 C20.4679014,8.83417334 20.6088393,12.3595292 16.5395303,13.4048625 L16.5395303,13.4048625 Z M0.210802438,25.559162 L26.7733601,25.559162 L26.7733601,0.0913990258 L0.210802438,0.0913990258 L0.210802438,25.559162 Z" id="Shape"></path>
                    </g>
                    <g id="Group" transform="translate(13.770385, 13.620115) scale(-1, 1) rotate(-180.000000) translate(-13.770385, -13.620115) translate(0.270385, 0.620115)">
                        <path d="M17.16396,9.10054886 C17.16396,6.33349009 13.7795172,6.49754593 13.7795172,6.49754593 L10.3950744,6.49754593 L10.3950744,11.4986665 L13.7795172,11.4986665 C17.264768,11.5190812 17.16396,9.10054886 17.16396,9.10054886 L17.16396,9.10054886 Z M10.3950744,19.1234506 L12.973778,19.1234506 C15.653048,18.9798095 15.55224,16.9508791 15.55224,16.9508791 C15.55224,14.4297811 12.5908525,14.3887056 12.5908525,14.3887056 L10.3950744,14.3887056 L10.3950744,19.1234506 Z M16.5395303,13.4048625 C16.5395303,13.4048625 18.8561814,14.4091204 18.8361165,17.0738595 C18.8361165,17.0738595 19.1883403,21.4394173 13.5024763,21.9724144 L7.19194098,21.9724144 L7.19194098,3.66899696 L14.4242535,3.66899696 C14.4242535,3.66899696 20.4679014,3.64833625 20.4679014,8.83417334 C20.4679014,8.83417334 20.6088393,12.3595292 16.5395303,13.4048625 L16.5395303,13.4048625 Z M0.210802438,25.559162 L26.7733601,25.559162 L26.7733601,0.0913990258 L0.210802438,0.0913990258 L0.210802438,25.559162 Z" id="Shape"></path>
                    </g>
                    <g id="Group" transform="translate(75.113411, 13.620460) scale(-1, 1) rotate(-180.000000) translate(-75.113411, -13.620460) translate(61.613411, 0.620460)">
                        <path d="M21.2736405,20.6607055 L21.2736405,17.2787448 C21.2736405,17.2787448 18.0301356,19.3079212 14.4443184,19.3489967 C14.4443184,19.3489967 7.75617594,19.4818155 7.45399355,12.8256249 C7.45399355,12.8256249 7.21224763,6.70243125 14.363817,6.35390483 C14.363817,6.35390483 17.3655761,5.98496366 21.4348851,8.62904204 L21.4348851,5.12410093 C21.4348851,5.12410093 15.9755371,1.82429111 9.64977169,4.36580384 C9.64977169,4.36580384 4.33136156,6.34332852 4.12974547,12.8256249 C4.12974547,12.8256249 3.90806446,19.4923918 10.9994391,21.7060388 C10.9994391,21.7060388 12.8932766,22.4439212 16.2977844,22.1160555 C16.2977844,22.1160555 18.332318,21.9109242 21.2736405,20.6607055 L21.2736405,20.6607055 Z M0.130301048,0.0917433709 L26.6928587,0.0917433709 L26.6928587,25.5595064 L0.130301048,25.5595064 L0.130301048,0.0917433709 Z" id="Shape"></path>
                    </g>
                </g>
            </g>
        </g>
    </g>
</svg>