<?xml version="1.0" encoding="UTF-8"?>
<svg width="435px" height="187px" viewBox="0 0 435 187" version="1.1" xmlns="http://www.w3.org/2000/svg" xmlns:xlink="http://www.w3.org/1999/xlink">
    <!-- Generator: Sketch 52.5 (67469) - http://www.bohemiancoding.com/sketch -->
    <title>Combined Shape</title>
    <desc>Created with Sketch.</desc>
    <g id="Page-1" stroke="none" stroke-width="1" fill="none" fill-rule="evenodd">
        <g id="Artboard" transform="translate(-53.000000, -186.000000)" fill="#FFFFFF">
            <g id="fox-3" transform="translate(53.000000, 186.000000)">
                <path d="M435,186.871469 L375.435458,186.871469 C374.887686,186.871469 373.887405,184.47212 373.601849,183.973532 C365.409078,169.222321 357.216069,154.400325 349.071168,139.673105 C340.354203,155.350468 331.875876,171.28912 323.182964,186.990237 C303.677501,187.037507 284.338512,186.895223 265,186.94273 C267.190852,182.857114 269.525077,178.866513 271.859064,174.852158 C288.125525,146.822933 304.153825,118.413651 320.444102,90.3606733 C303.129728,60.1936266 285.553376,30.2641158 268.1435,0.168329868 C268.096105,0.168329868 267.977024,-0.0216987721 268.096105,0.00205480796 L327.946203,0.00205480796 C335.30517,13.3515668 342.474082,26.8673538 349.713967,40.3118801 C357.240123,26.9861217 364.504063,13.399074 371.958294,0.00205480796 L429.807831,0.00205480796 C429.855226,0.239590608 429.68875,0.500879989 429.569669,0.690908629 C412.683987,30.2878694 395.39343,59.9798444 378.531325,89.6243123 C397.275147,122.071703 416.375736,154.495339 435,186.871469 Z M290.597948,72.6137022 C292.12004,78.773429 293,85.5491285 293,92.6801968 C293,114.92605 286.531346,131.415402 277.541251,144.824653 C276.019396,147.099251 274.473521,149.278609 272.808733,151.363677 C267.933281,157.523404 262.035173,163.137995 255.447368,167.805172 C251.023549,170.932418 246.409945,173.775369 241.296666,176.168186 C231.117674,180.930129 218.821785,184.649656 204.647301,184.649656 C182.48207,184.649656 166.119341,177.921339 152.872619,168.681749 C139.625422,159.418467 129.303734,147.170088 122.28784,131.723388 C117.578867,121.370309 114.487117,109.429915 114.130377,94.8834837 C113.963898,87.6813416 114.867641,80.5739645 116.175689,74.4142378 C119.505265,58.8727733 126.045506,46.6954673 134.32212,36.2002405 C142.598259,25.7287049 153.086426,17.5315301 165.7626,11.348112 C170.733183,8.93160383 176.298571,6.87046449 182.363157,5.3779153 C188.427743,3.88536612 195.134224,2.86664208 202.387945,2.86664208 L202.506859,2.86664208 C209.594339,2.53496448 217.109431,3.67214481 223.007539,4.97516394 C229.143473,6.32556558 234.827537,8.38670492 239.89325,10.6610656 C255.589826,17.7210601 267.29091,28.2873607 276.708856,41.4833907 C282.916139,50.1306995 287.577546,60.50747 290.597948,72.6137022 Z M219.249874,134.353118 C219.820658,132.078757 219.654179,129.164969 219.654179,126.155943 L219.654179,57.6882104 C219.654179,54.7504946 219.321222,52.4761339 218.465045,50.3439208 C217.680216,48.4012377 216.467299,46.6243935 215.040337,45.1792268 C212.257762,42.3599672 208.072009,39.8250028 202.816272,40.2277541 C200.271524,40.4172842 198.154626,41.2227869 196.299814,42.3836585 C192.851324,44.5632541 190.235228,47.9037213 189.165007,52.3339864 C188.618005,54.5846558 188.641787,57.4512979 188.641787,60.412705 L188.641787,128.880437 C188.641787,130.349295 188.570439,131.770771 188.760701,133.026407 C189.260375,136.627478 190.87736,139.517812 192.99402,141.673716 C195.72903,144.445593 199.962586,146.767336 205.432605,146.175055 C212.495589,145.416935 217.680454,140.749757 219.249874,134.353118 Z M116.556212,51.1257323 L53.3656002,51.1257323 C53.1039906,58.943847 53.3180349,67.5911558 53.2466868,75.4566531 C70.3226593,75.5988006 87.6602414,75.4803443 104.855127,75.5040356 L104.855127,126.511312 C87.541328,126.558694 70.0848324,126.440238 52.8661637,126.558694 C52.8899464,146.790791 52.9850772,166.644301 52.9850772,186.876634 C52.9850772,186.947708 52.9610567,186.971399 52.9375118,186.99509 L0.258850069,186.99509 C0.163719303,187.019018 0.163719303,186.947708 0.0923712285,186.947708 C-0.0265422291,124.829232 -0.0265422291,62.3080055 0.0688263639,0.165838798 C0.0688263639,0.0947650274 0.0688263639,0 0.11615392,0 L112.965025,0 C113.036611,0 113.060156,0 113.083939,0.0473825137 C114.273073,17.0577049 115.41488,34.0917186 116.556212,51.1257323 Z" id="Combined-Shape"></path>
            </g>
        </g>
    </g>
</svg>