<?xml version="1.0" encoding="UTF-8"?>
<svg width="490px" height="63px" viewBox="0 0 490 63" version="1.1" xmlns="http://www.w3.org/2000/svg" xmlns:xlink="http://www.w3.org/1999/xlink">
    <!-- Generator: Sketch 52.5 (67469) - http://www.bohemiancoding.com/sketch -->
    <title>Combined Shape</title>
    <desc>Created with Sketch.</desc>
    <g id="Page-1" stroke="none" stroke-width="1" fill="none" fill-rule="evenodd">
        <g id="Artboard" transform="translate(-26.000000, -239.000000)" fill="#FFFFFF">
            <g id="HYPEBEAST-Logo_" transform="translate(26.000000, 239.000000)">
                <path d="M98.2784556,0.327594852 L109.826174,0.327594852 L87.8773191,35.5358516 L87.8773191,61.7516296 L77.8856761,61.7516296 L77.8856761,35.5522313 L55.7730236,0.327594852 L68.0578305,0.327594852 L83.1353836,26.1338793 L98.2784556,0.327594852 Z M41.1131539,25.961892 L41.1131539,0.327594852 L51.1047969,0.327594852 L51.1047969,61.7516296 L41.1131539,61.7516296 L41.1131539,35.2983453 L9.99164299,35.2983453 L9.99164299,61.7516296 L-7.10542736e-15,61.7516296 L-7.10542736e-15,0.327594852 L9.99164299,0.327594852 L9.99164299,25.961892 L41.1131539,25.961892 Z M143.568444,0.327594852 C153.887682,0.327594852 160.603376,7.20708675 160.603376,16.2159452 L160.603376,20.9660705 C160.603376,29.4835367 154.297175,36.6087247 143.568444,36.6087247 L124.895537,36.6087247 L124.895537,61.7516296 L114.903894,61.7516296 L114.903894,0.327594852 L143.568444,0.327594852 Z M150.611733,19.8194886 L150.611733,17.0349323 C150.611733,13.4313889 147.745278,9.82784556 142.585659,9.82784556 L124.895537,9.82784556 L124.895537,27.5998663 L142.585659,27.5998663 C147.909076,27.5998663 150.611733,23.7506268 150.611733,19.8194886 Z M179.276283,35.1345479 L179.276283,52.4151763 L211.462477,52.4151763 L211.462477,61.7516296 L169.28464,61.7516296 L169.28464,0.327594852 L210.971085,0.327594852 L210.971085,9.66404814 L179.276283,9.66404814 L179.276283,25.961892 L209.251212,25.961892 L209.251212,35.1345479 L179.276283,35.1345479 Z M490,0.327594852 L490,9.17265586 L471.818486,9.17265586 L471.818486,61.7516296 L461.826843,61.7516296 L461.826843,9.17265586 L443.645328,9.17265586 L443.645328,0.327594852 L490,0.327594852 Z M263.271603,30.2533846 C268.52131,32.7922447 271.08474,37.3703828 271.08474,42.3416346 L271.08474,46.518469 C271.08474,53.3160622 266.826007,61.7516296 255.114491,61.7516296 L222.682601,61.7516296 L222.682601,0.327594852 L252.248036,0.327594852 C263.713856,0.327594852 269.282968,7.86227645 269.282968,15.396958 L269.282968,20.8022731 C269.282968,24.5204747 267.055323,28.2468661 263.271603,30.2533846 Z M251.920441,9.66404814 L232.674244,9.66404814 L232.674244,26.2075882 L251.920441,26.2075882 C256.998161,26.2075882 259.291325,22.5221461 259.291325,19.2461976 L259.291325,16.54354 C259.291325,13.1037941 256.916263,9.66404814 251.920441,9.66404814 Z M261.093097,45.6994819 L261.093097,42.7511282 C261.093097,39.1475848 258.554237,35.380244 253.722213,35.380244 L232.674244,35.380244 L232.674244,52.4151763 L253.722213,52.4151763 C257.899047,52.4151763 261.093097,49.4668227 261.093097,45.6994819 Z M418.830018,25.6342972 C428.330269,25.6342972 437.421026,32.7594852 437.421026,42.8330269 L437.421026,44.6347986 C437.421026,54.7083403 429.886345,62.0792245 418.420525,62.0792245 L408.510781,62.0792245 C395.406986,62.0792245 389.346482,52.9884673 389.346482,44.3891025 L399.583821,44.3891025 C399.583821,49.384924 403.760655,52.9065686 409.247869,52.9065686 L417.683436,52.9065686 C424.153435,52.9065686 427.429383,48.7297342 427.429383,44.6347986 L427.429383,43.5701153 C427.429383,39.4751797 423.907739,35.4621427 417.192044,35.4621427 L407.200401,35.4621427 C396.635467,35.4621427 389.182684,27.5179676 389.182684,19.3280963 L389.182684,16.2159452 C389.182684,6.96139061 396.144075,1.77635684e-14 407.527996,1.77635684e-14 L417.43774,1.77635684e-14 C428.739763,1.77635684e-14 435.783052,7.20708675 435.783052,16.9530336 L425.70951,16.9530336 C425.70951,12.7761992 422.351663,9.00885843 416.127361,9.00885843 L408.674578,9.00885843 C401.631289,9.00885843 399.174327,12.6124018 399.174327,16.6254387 L399.174327,18.0996156 C399.174327,22.1945512 402.777871,25.6342972 408.674578,25.6342972 L418.830018,25.6342972 Z M290.740431,35.1345479 L290.740431,52.4151763 L322.926625,52.4151763 L322.926625,61.7516296 L280.748788,61.7516296 L280.748788,0.327594852 L322.435233,0.327594852 L322.435233,9.66404814 L290.740431,9.66404814 L290.740431,25.961892 L320.71536,25.961892 L320.71536,35.1345479 L290.740431,35.1345479 Z M351.427378,0.327594852 L363.38459,0.327594852 L385.415343,61.7516296 L374.113321,61.7516296 L369.158449,47.1736587 L345.031088,47.1736587 L340.125355,61.7516296 L329.232826,61.7516296 L351.427378,0.327594852 Z M348.06953,38.1648003 L366.095437,38.1648003 L357.045629,11.5149591 L348.06953,38.1648003 Z" id="Combined-Shape"></path>
            </g>
        </g>
    </g>
</svg>