<?xml version="1.0" encoding="UTF-8"?>
<svg width="361px" height="233px" viewBox="0 0 361 233" version="1.1" xmlns="http://www.w3.org/2000/svg" xmlns:xlink="http://www.w3.org/1999/xlink">
    <!-- Generator: Sketch 52.5 (67469) - http://www.bohemiancoding.com/sketch -->
    <title>Group</title>
    <desc>Created with Sketch.</desc>
    <g id="Page-1" stroke="none" stroke-width="1" fill="none" fill-rule="evenodd">
        <g id="Artboard" transform="translate(-198.000000, -237.000000)" fill="#B4B4B4">
            <g id="Group" transform="translate(198.000000, 237.000000)">
                <path d="M1.75955056,105.476404 C1.66516854,96.011236 0.849438202,85.0696629 0.0202247191,76.7033708 C-0.166085393,74.8701206 1.11771122,73.2127481 2.93932584,72.9348315 L3.0741573,72.9146067 C4.8411562,72.6416436 6.52890022,73.7474069 6.98426966,75.4764045 C8.00154597,79.6899256 9.6905747,83.7121813 11.9865169,87.388764 C14.0629213,90.6516854 21.3303371,101.916854 36.5932584,101.916854 C47.7168539,101.916854 55.8741573,94.0561798 55.8741573,84.1191011 C55.8741573,74.9370787 48.458427,71.2292135 33.9303371,65.741573 C29.6359551,63.9617978 25.1865169,62.3370787 20.8853933,60.4089888 C14.952809,57.5842697 1.01123596,51.0651685 1.01123596,32.9707865 C1.01123596,12.8202247 17.1775281,0.95505618 37.7865169,0.95505618 C42.788764,0.95505618 49.9078652,1.65617978 57.0404494,4.93258427 C58.6179775,5.65393258 60.4786517,5.09438202 61.4089888,3.63820225 L62.588764,1.77752809 C63.2074494,0.797023151 64.274729,0.190039449 65.4337079,0.159550562 C67.2963263,0.114834308 68.8672724,1.53757797 69.0067416,3.39550562 C69.6618572,11.8360546 70.6017183,20.2520832 71.8247191,28.6292135 C72.3414534,29.8903733 72.0772589,31.3369193 71.1480835,32.3340008 C70.2189081,33.3310822 68.7945572,33.6964841 67.5001406,33.2698412 C66.2057241,32.8431983 65.2777945,31.702479 65.1235955,30.3483146 C63.2629213,25.4337079 62.211236,23.1348315 60.1685393,20.0741573 C55.2808989,13.4067416 48.7550562,8.81573034 40.6044944,8.81573034 C30.0741573,8.81573034 23.8516854,17.4044944 23.8516854,24.3752809 C23.8516854,32.3775281 30.9640449,35.788764 34.0786517,37.2719101 C40.4561798,40.3865169 47.1235955,42.4629213 53.7977528,45.1325843 C64.4696629,49.2853933 79.1460674,55.6629213 79.1460674,75.2337079 C79.1460674,94.5011236 63.7280899,110.660674 39.2696629,110.660674 C27.1146067,110.660674 19.1932584,106.817978 14.5955056,103.898876 C13.8076323,103.403375 12.8535498,103.245653 11.9481259,103.46123 C11.042702,103.676807 10.2620655,104.247558 9.78202247,105.044944 L8.46741573,107.21573 C7.88239757,108.171286 6.87441135,108.788114 5.75730337,108.874157 L5.50786517,108.894382 C4.5490104,108.973046 3.60061209,108.649531 2.88971775,108.001288 C2.17882342,107.353044 1.7694314,106.43843 1.75955056,105.476404 Z M82.4022472,104.626966 C82.4022472,103.150562 83.4606742,101.896629 84.9033708,101.653933 C87.141573,101.283146 89.8516854,100.319101 90.2629213,97.4741573 C90.7078652,94.0561798 90.7078652,85.1640449 90.7078652,82.9393258 C90.7078652,77.7483146 90.5595506,69.3011236 90.5595506,64.1101124 C90.5595506,56.6674157 88.0651685,54.6247191 84.5595506,53.6337079 C83.2762938,53.2581338 82.3964912,52.0786484 82.4022472,50.741573 L82.4022472,50.3910112 C82.4022472,48.9146067 83.4674157,47.6741573 84.9168539,47.4247191 C92.2988764,46.1303371 103.462921,42.9752809 109.321348,40.952809 C110.083694,40.6886532 110.920217,40.7419613 111.642865,41.1007497 C112.365512,41.459538 112.913646,42.0936999 113.164045,42.8606742 C113.285393,43.2516854 113.4,43.6224719 113.501124,44.0067416 C113.759214,44.90757 114.421681,45.6370711 115.29354,45.9805307 C116.165399,46.3239902 117.147419,46.2423173 117.950562,45.7595506 C123.546067,42.5101124 128.851685,40.0966292 136.665169,40.0966292 C142.301124,40.0966292 147.937079,41.5797753 152.534831,44.8359551 C159.755056,49.8516854 160.961798,57.5101124 161.568539,65.6202247 L161.568539,78.6382022 C161.568539,80.8629213 161.278652,92.4247191 161.278652,94.952809 C161.278652,98.7011236 162.296629,100.986517 167.197753,101.896629 C168.598339,102.184406 169.597082,103.426468 169.577528,104.85618 C169.57929,105.688676 169.235815,106.484642 168.628915,107.054489 C168.022016,107.624336 167.206017,107.917054 166.375281,107.862921 C162.175281,107.579775 155.831461,107.397753 145.408989,107.397753 C139.530337,107.397753 136.28764,107.559551 133.274157,107.822472 C132.431677,107.898165 131.596172,107.616291 130.971728,107.045701 C130.347285,106.475111 129.991402,105.668346 129.991011,104.822472 L129.991011,104.188764 C129.991011,102.833708 130.901124,101.633708 132.21573,101.289888 C136.550562,100.116854 137.089888,98.047191 136.961798,89.0202247 L136.665169,65.8898876 C136.516854,58.7775281 136.220225,50.6202247 126.579775,50.6202247 C122.568539,50.6202247 119.460674,52.0898876 116.467416,54.3483146 C115.66707,54.9358248 115.203986,55.8770934 115.226966,56.8696629 C115.462921,64.2988764 115.462921,85.3865169 115.462921,91.9797753 C115.462921,98.7820225 116.642697,100.662921 120.262921,101.620225 C121.557303,101.957303 122.433708,103.170787 122.433708,104.51236 L122.433708,104.903371 C122.435344,105.736403 122.092074,106.532951 121.485421,107.103843 C120.878769,107.674735 120.062858,107.969037 119.231461,107.916854 C114.195506,107.6 107.723596,107.397753 95.5955056,107.397753 C90.9303371,107.397753 88.2202247,107.546067 85.6921348,107.788764 C84.8468902,107.868725 84.0072369,107.587609 83.3805272,107.014837 C82.7538175,106.442066 82.3984734,105.631033 82.4022472,104.782022 L82.4022472,104.626966 Z M211.54382,79.9393258 C211.538658,79.0087051 211.103807,78.1326772 210.365673,77.5658962 C209.62754,76.9991152 208.668943,76.8051739 207.768539,77.0404494 C202.766292,78.3078652 196.125843,81.2269663 196.125843,89.0202247 C196.125843,93.0247191 198.202247,97.4674157 203.838202,97.4674157 C206.710112,97.4674157 208.422472,96.5977528 210.222472,95.411236 C211.051931,94.8526923 211.547683,93.9168331 211.54382,92.9168539 L211.54382,79.9393258 Z M245.804494,97.0898876 C246.466405,97.6209613 246.873711,98.4065099 246.926328,99.2535024 C246.978944,100.100495 246.671992,100.930414 246.080899,101.539326 C238.955056,108.752809 231.889888,110.222472 228,110.222472 C223.998677,110.174333 220.112228,108.878065 216.883146,106.514607 C215.853473,105.687346 214.929659,104.73636 214.132584,103.683146 C213.188904,102.432213 211.435021,102.131041 210.12809,102.995506 C206.049438,105.644944 197.629213,110.364045 188.27191,110.364045 C174.626966,110.364045 171.370787,101.175281 171.370787,95.694382 C171.370787,78.752809 197.440449,71.6674157 209.244944,69.5505618 C210.664576,69.2905183 211.696492,68.0544864 211.698876,66.611236 C211.71236,62.0269663 211.719101,56.6337079 211.098876,54.7730337 C209.319101,49.5820225 203.393258,49.5820225 202.651685,49.5820225 C197.757303,49.5820225 195.08764,52.5483146 194.197753,55.811236 C193.752809,57.7393258 193.752809,59.8157303 193.307865,61.7438202 C192.121348,66.7797753 187.968539,68.7078652 184.267416,68.7078652 C179.669663,68.7078652 175.368539,65.741573 175.368539,60.2606742 C175.368539,49.2853933 195.680899,40.3865169 214.065169,40.3865169 C226.813483,40.3865169 236.150562,44.5393258 236.150562,56.8494382 L235.860674,89.9101124 C235.71236,92.4314607 235.557303,98.2022472 239.413483,98.2022472 C240.370787,98.2022472 241.274157,97.7033708 242.123596,97.0426966 C243.215553,96.2104816 244.734232,96.2299519 245.804494,97.0898876 Z M246.283146,49.6089888 C245.056376,49.2447223 244.219913,48.1110957 244.233708,46.8314607 L244.233708,46.0898876 C244.22769,44.646807 245.307934,43.4300809 246.741573,43.2651685 C256.752809,42.1932584 267.34382,39.4629213 272.555056,38.047191 C273.307548,37.8391365 274.11267,37.9533787 274.777581,38.3625545 C275.442492,38.7717303 275.907299,39.4389833 276.060674,40.2044944 C276.21573,40.8921348 276.370787,41.7348315 276.559551,42.7932584 C276.717317,43.7237578 277.327297,44.5149671 278.187037,44.9042831 C279.046776,45.2935992 280.043799,45.2300889 280.847191,44.7348315 C286.665169,41.0067416 292.402247,39.058427 299.683146,39.058427 C317.622472,39.058427 328.739326,54.4764045 328.739326,70.7842697 C328.739326,93.1662921 312.876404,108.739326 294.350562,108.739326 C288.667416,108.739326 284.52809,107.289888 281.662921,105.746067 C280.783602,105.263572 279.715184,105.279753 278.850879,105.788656 C277.986574,106.297558 277.454105,107.223979 277.449438,108.226966 L277.449438,125.337079 C277.449438,131.074157 277.8,135.496629 283.934831,136.534831 C285.262535,136.798251 286.21263,137.972399 286.193258,139.325843 C286.193474,140.092196 285.884503,140.826226 285.336302,141.361737 C284.7881,141.897249 284.047037,142.188947 283.280899,142.170787 C275.952116,141.967771 268.621349,141.844168 261.289888,141.8 C255.714607,141.8 252.107865,141.901124 247.361798,142.103371 C246.586529,142.14016 245.829887,141.858608 245.267249,141.323974 C244.704611,140.789341 244.384828,140.048046 244.382022,139.27191 L244.382022,138.901124 C244.382022,137.525843 245.339326,136.292135 246.701124,136.062921 C252.21573,135.119101 252.68764,132.085393 252.68764,127.858427 C252.835955,125.040449 252.835955,116.296629 252.835955,113.033708 L252.68764,65 C252.957303,53.6741573 251.339326,51.0044944 246.283146,49.6089888 Z M302.494382,74.788764 C302.494382,64.1101124 298.044944,49.8786517 287.083146,49.8786517 C277.146067,49.8786517 277.146067,60.1123596 277.146067,63.2202247 C277.146067,66.6314607 277.301124,83.2359551 277.301124,86.9438202 C277.301124,91.6898876 277.301124,100.137079 287.52809,100.137079 C298.496629,100.137079 302.494382,84.8674157 302.494382,74.788764 Z" id="Combined-Shape"></path>
                <path d="M141.757303,229.986812 C133.12809,229.986812 129.683146,230.087935 124.633708,230.445239 C122.848405,230.53056 121.304542,229.212872 121.108338,227.436333 C120.912134,225.659795 122.131241,224.036959 123.892135,223.730632 C132.204494,222.56434 132.561798,219.56434 132.561798,200.775576 L132.561798,153.631756 C132.413483,142.366587 132.27191,138.955351 131.226966,136.878947 C130.107865,134.249733 128.348315,133.629508 123.817978,132.874452 C122.192585,132.604229 121.000759,131.198558 121,129.550857 C121,127.474452 122.564045,125.957598 124.465169,126.011531 C132.797753,126.234003 141.137079,126.34861 149.462921,126.34861 C157.822472,126.34861 163.182022,126.166587 167.779775,126.011531 C169.635824,125.858877 171.2642,127.239751 171.416854,129.095801 C171.569508,130.95185 170.188633,132.580225 168.332584,132.732879 C159.548315,133.831756 159.548315,136.494677 159.548315,156.153104 L159.696629,202.110407 C159.993258,217.683441 160.141573,218.573329 161.921348,220.939621 C163.188764,222.43625 165.177528,223.225014 168.224719,223.63625 C169.881944,223.877404 171.11082,225.298649 171.110112,226.973329 C171.129314,227.926117 170.747504,228.843173 170.05781,229.500818 C169.368117,230.158463 168.433944,230.496237 167.483146,230.431756 C161.462921,229.986812 157.525843,229.986812 141.757303,229.986812 Z M174.689888,224.23625 C176.92809,223.865463 179.638202,222.901418 180.049438,220.056475 C180.494382,216.638497 180.494382,207.746362 180.494382,205.521643 C180.494382,200.330632 180.346067,191.883441 180.346067,186.69243 C180.346067,179.249733 177.851685,177.207036 174.346067,176.216025 C173.062811,175.840451 172.183008,174.660966 172.188764,173.32389 L172.188764,172.973329 C172.188764,171.496924 173.247191,170.256475 174.703371,170.007036 C182.085393,168.712654 193.242697,165.557598 199.107865,163.535126 C199.870211,163.270971 200.706734,163.324279 201.429381,163.683067 C202.152029,164.041855 202.700163,164.676017 202.950562,165.442992 C203.07191,165.834003 203.186517,166.204789 203.28764,166.589059 C203.546303,167.487841 204.207617,168.215581 205.077616,168.558828 C205.947614,168.902075 206.927674,168.821918 207.730337,168.341868 C213.325843,165.09243 218.631461,162.678947 226.451685,162.678947 C232.080899,162.678947 237.716854,164.162093 242.314607,167.418272 C249.541573,172.434003 250.755056,180.09243 251.348315,188.202542 C251.361798,188.283441 251.361798,188.36434 251.361798,188.445239 L251.361798,201.22052 C251.361798,203.445239 251.065169,215.007036 251.065169,217.535126 C251.065169,221.283441 252.076404,223.568834 256.98427,224.478947 C258.384856,224.766723 259.383599,226.008785 259.364045,227.438497 C259.365933,228.272246 259.021543,229.069346 258.413132,229.639412 C257.80472,230.209478 256.986918,230.501323 256.155056,230.445239 C251.961798,230.162093 245.611236,229.98007 235.195506,229.98007 C229.310112,229.98007 226.074157,230.141868 223.060674,230.404789 C222.218194,230.480483 221.382689,230.198608 220.758245,229.628018 C220.133802,229.057428 219.777919,228.250663 219.777528,227.404789 L219.777528,226.771081 C219.777528,225.416025 220.68764,224.216025 222.002247,223.872205 C226.337079,222.699171 226.876404,220.629508 226.748315,211.602542 L226.451685,188.472205 C226.296629,181.359845 226.006742,173.202542 216.366292,173.202542 C212.355056,173.202542 209.240449,174.672205 206.247191,176.930632 C205.449389,177.519603 204.988939,178.460631 205.013483,179.45198 C205.249438,186.881194 205.249438,207.968834 205.249438,214.562093 C205.249438,221.36434 206.422472,223.245239 210.049438,224.202542 C211.34382,224.539621 212.220225,225.753104 212.220225,227.094677 L212.220225,227.485688 C212.221861,228.31872 211.878591,229.115268 211.271938,229.68616 C210.665286,230.257053 209.849375,230.551354 209.017978,230.499171 C203.982022,230.182317 197.510112,229.98007 185.382022,229.98007 C180.716854,229.98007 178.006742,230.128385 175.478652,230.371081 C174.633407,230.451042 173.793754,230.169926 173.167044,229.597154 C172.540334,229.024383 172.18499,228.21335 172.188764,227.36434 L172.188764,227.209284 C172.188764,225.732879 173.247191,224.478947 174.689888,224.23625 Z M326.901124,219.995801 C318.726323,228.113514 307.70001,232.710835 296.179775,232.804789 C274.977528,232.804789 259.411236,218.121643 259.411236,197.957598 C259.411236,176.762093 277.498876,163.12389 299.591011,163.12389 C314.119101,163.12389 327.905618,169.494677 327.905618,180.173329 C327.905618,185.209284 323.611236,189.510407 318.568539,189.510407 C316.34382,189.510407 313.674157,188.472205 312.042697,186.840744 C310.707865,185.654227 310.411236,184.912654 307.593258,178.541868 C306.258427,175.72389 303.292135,170.681194 298.701124,170.681194 C290.098876,170.681194 287.725843,185.357598 287.725843,192.625014 C287.725843,209.377823 297.217978,220.642992 307.593258,220.642992 C313.107865,220.642992 317.67191,218.10816 321.723596,214.54861 C323.038619,213.380844 324.987243,213.280053 326.41573,214.305913 C328.276404,215.654227 328.532584,218.377823 326.901124,219.995801 Z M360.373034,219.604789 C360.373034,227.168834 354.157303,232.953104 347.038202,232.953104 C339.750856,233.02801 333.77874,227.188609 333.689888,219.901418 C333.689888,210.712654 340.808989,206.114902 346.889888,206.114902 C354.157303,206.114902 360.373034,211.899171 360.373034,219.604789 Z" id="Shape"></path>
            </g>
        </g>
    </g>
</svg>