<?xml version="1.0" encoding="UTF-8"?>
<svg width="133px" height="23px" viewBox="0 0 133 23" version="1.1" xmlns="http://www.w3.org/2000/svg" xmlns:xlink="http://www.w3.org/1999/xlink">
    <!-- Generator: Sketch 52.4 (67378) - http://www.bohemiancoding.com/sketch -->
    <title>Mashable</title>
    <desc>Created with Sketch.</desc>
    <defs>
        <polygon id="path-1" points="0 23 133 23 133 0 0 0"></polygon>
        <polygon id="path-3" points="0 23 133 23 133 0 0 0"></polygon>
        <polygon id="path-5" points="0 23 133 23 133 0 0 0"></polygon>
        <polygon id="path-7" points="0 23 133 23 133 0 0 0"></polygon>
        <polygon id="path-9" points="0 23 133 23 133 0 0 0"></polygon>
        <polygon id="path-11" points="0 23 133 23 133 0 0 0"></polygon>
        <polygon id="path-13" points="0 23 133 23 133 0 0 0"></polygon>
    </defs>
    <g id="Page-3" stroke="none" stroke-width="1" fill="none" fill-rule="evenodd">
        <g id="Desktop-HD" transform="translate(-613.000000, -1673.000000)">
            <g id="Press-logos" transform="translate(246.000000, 1668.000000)">
                <g id="Mashable" transform="translate(367.000000, 5.000000)">
                    <path d="M124.703695,9.88865072 C122.452767,9.88865072 121.579977,11.2559202 121.377784,12.4547452 L128.061749,12.4547452 C127.928509,11.2886847 127.087862,9.88865072 124.703695,9.88865072 L124.703695,9.88865072 Z M116.104235,14.3043725 C116.104235,9.50934458 119.632205,5.64150943 124.703695,5.64150943 C129.508707,5.64150943 133,9.23771241 133,14.8522592 L133,16.0509482 L121.446738,16.0509482 C121.814179,17.5212693 123.160175,18.7574811 125.507665,18.7574811 C126.651468,18.7574811 128.534821,18.2423589 129.47203,17.3526888 L131.722958,20.8084533 C130.110484,22.2835328 127.423161,23 124.938031,23 C119.935361,23 116.104235,19.6799156 116.104235,14.3043725 L116.104235,14.3043725 Z" id="Fill-1" fill="#FFFFFF" fill-rule="nonzero"></path>
                    <g id="Fill-3-Clipped">
                        <mask id="mask-2" fill="white">
                            <use xlink:href="#path-1"></use>
                        </mask>
                        <g id="path-1"></g>
                        <polygon id="Fill-3" fill="#FFFFFF" fill-rule="nonzero" mask="url(#mask-2)" points="110.039088 22.1320755 115.237785 22.1320755 115.237785 0 110.039088 0"></polygon>
                    </g>
                    <g id="Fill-5-Clipped">
                        <mask id="mask-4" fill="white">
                            <use xlink:href="#path-3"></use>
                        </mask>
                        <g id="path-1"></g>
                        <path d="M100.427983,18.3907198 C102.448824,18.3907198 103.971229,16.8666219 103.971229,14.3975615 C103.971229,11.9563417 102.448824,10.4322437 100.427983,10.4322437 C99.3360031,10.4322437 98.0084205,11.0436583 97.3787001,11.9237939 L97.3787001,16.9361558 C98.0084205,17.8162915 99.3360031,18.3907198 100.427983,18.3907198 L100.427983,18.3907198 Z M92.276873,22.5923455 L92.276873,0 L97.3787001,0 L97.3787001,8.16237062 C98.6382725,6.53632535 100.359973,5.82753638 102.117981,5.82753638 C106.127828,5.82753638 109.172638,9.04250628 109.172638,14.3975615 C109.172638,19.951804 106.059949,23 102.117981,23 C100.32827,23 98.7062827,22.2542249 97.3787001,20.6977136 L97.3787001,22.5923455 L92.276873,22.5923455 Z" id="Fill-5" fill="#FFFFFF" fill-rule="nonzero" mask="url(#mask-4)"></path>
                    </g>
                    <g id="Fill-6-Clipped">
                        <mask id="mask-6" fill="white">
                            <use xlink:href="#path-5"></use>
                        </mask>
                        <g id="path-1"></g>
                        <path d="M85.4345121,18.3407881 L85.4345121,16.870467 C84.90358,16.0837126 83.7102351,15.7045424 82.5802593,15.7045424 C81.2553007,15.7045424 80.025594,16.3225803 80.025594,17.624321 C80.025594,18.9260616 81.2553007,19.5394772 82.5802593,19.5394772 C83.7102351,19.5394772 84.90358,19.1321649 85.4345121,18.3407881 L85.4345121,18.3407881 Z M85.4345121,22.5879294 L85.4345121,20.9442694 C84.4407603,22.1758588 82.512279,23 80.4566635,23 C78.0017291,23 74.9478827,21.2534243 74.9478827,17.5541697 C74.9478827,13.5505185 78.0017291,12.2112551 80.4566635,12.2112551 C82.5802593,12.2112551 84.4725109,12.9323447 85.4345121,14.163934 L85.4345121,12.5202741 C85.4345121,11.0827173 84.2410351,10.0899957 82.1809404,10.0899957 C80.5882767,10.0899957 78.9954808,10.740934 77.7022729,11.8694717 L75.8100212,8.2076039 C77.8701158,6.39074103 80.6245064,5.64150943 83.0794404,5.64150943 C86.9274453,5.64150943 90.5439739,7.11196652 90.5439739,12.2487779 L90.5439739,22.5879294 L85.4345121,22.5879294 Z" id="Fill-6" fill="#FFFFFF" fill-rule="nonzero" mask="url(#mask-6)"></path>
                    </g>
                    <g id="Fill-7-Clipped">
                        <mask id="mask-8" fill="white">
                            <use xlink:href="#path-7"></use>
                        </mask>
                        <g id="path-1"></g>
                        <path d="M68.9494744,22.1320755 L68.9494744,12.8064556 C68.9494744,10.8505524 67.9148254,10.2197094 66.283259,10.2197094 C64.7837524,10.2197094 63.7856255,11.0501613 63.1840761,11.7807428 L63.1840761,22.1320755 L58.0521173,22.1320755 L58.0521173,0 L63.1840761,0 L63.1840761,8.06419738 C64.1501807,6.9341346 66.0507641,5.70894474 68.7488697,5.70894474 C72.4133446,5.70894474 74.0814332,7.76458649 74.0814332,10.7189292 L74.0814332,22.1320755 L68.9494744,22.1320755 Z" id="Fill-7" fill="#FFFFFF" fill-rule="nonzero" mask="url(#mask-8)"></path>
                    </g>
                    <g id="Fill-8-Clipped">
                        <mask id="mask-10" fill="white">
                            <use xlink:href="#path-9"></use>
                        </mask>
                        <g id="path-1"></g>
                        <path d="M42.4560261,20.4339055 L44.6320625,16.669122 C45.8550117,17.7647594 48.4727624,18.8932972 50.4117421,18.8932972 C51.9740766,18.8932972 52.620448,18.4484621 52.620448,17.7273726 C52.620448,15.6764003 43.069728,17.7976598 43.069728,11.0874757 C43.069728,8.17483949 45.5852851,5.64150943 50.1048907,5.64150943 C52.8947646,5.64150943 55.2056643,6.53131542 56.9725212,7.8330561 L54.9684724,11.5650751 C53.982715,10.6051179 52.1135295,9.75283464 50.1420155,9.75283464 C48.9144766,9.75283464 48.100842,10.2305701 48.100842,10.8813724 C48.100842,12.6936129 57.6188925,10.8112212 57.6188925,17.5915565 C57.6188925,20.7429245 54.8661434,23 50.1745498,23 C47.2174135,23 44.1903482,22.0072783 42.4560261,20.4339055" id="Fill-8" fill="#FFFFFF" fill-rule="nonzero" mask="url(#mask-10)"></path>
                    </g>
                    <g id="Fill-9-Clipped">
                        <mask id="mask-12" fill="white">
                            <use xlink:href="#path-11"></use>
                        </mask>
                        <g id="path-1"></g>
                        <path d="M36.9133394,18.3407881 L36.9133394,16.870467 C36.3824076,16.0837126 35.1890624,15.7045424 34.0590865,15.7045424 C32.7341282,15.7045424 31.5044214,16.3225803 31.5044214,17.624321 C31.5044214,18.9260616 32.7341282,19.5394772 34.0590865,19.5394772 C35.1890624,19.5394772 36.3824076,19.1321649 36.9133394,18.3407881 L36.9133394,18.3407881 Z M36.9133394,22.5879294 L36.9133394,20.9442694 C35.9195878,22.1758588 33.9911062,23 31.9354907,23 C29.4805565,23 26.4267101,21.2534243 26.4267101,17.5541697 C26.4267101,13.5505185 29.4805565,12.2112551 31.9354907,12.2112551 C34.0590865,12.2112551 35.9513383,12.9323447 36.9133394,14.163934 L36.9133394,12.5202741 C36.9133394,11.0827173 35.7198625,10.0899957 33.6597678,10.0899957 C32.0671038,10.0899957 30.4743082,10.740934 29.1811004,11.8694717 L27.2888486,8.2076039 C29.3489434,6.39074103 32.1033337,5.64150943 34.5582679,5.64150943 C38.4062725,5.64150943 42.0228013,7.11196652 42.0228013,12.2487779 L42.0228013,22.5879294 L36.9133394,22.5879294 Z" id="Fill-9" fill="#FFFFFF" fill-rule="nonzero" mask="url(#mask-12)"></path>
                    </g>
                    <g id="Fill-10-Clipped">
                        <mask id="mask-14" fill="white">
                            <use xlink:href="#path-13"></use>
                        </mask>
                        <g id="path-1"></g>
                        <polygon id="Fill-10" fill="#FFFFFF" fill-rule="nonzero" mask="url(#mask-14)" points="19.4171965 22.1320755 19.4171965 7.49686028 13.8434844 22.1320755 11.3199223 22.1320755 5.70983938 7.49686028 5.70983938 22.1320755 0 22.1320755 0 0 7.93386854 0 12.5817034 12.2118452 17.1931673 0 25.1270358 0 25.1270358 22.1320755"></polygon>
                    </g>
                </g>
            </g>
        </g>
    </g>
</svg>