<?xml version="1.0" encoding="UTF-8"?>
<svg width="214px" height="56px" viewBox="0 0 214 56" version="1.1" xmlns="http://www.w3.org/2000/svg" xmlns:xlink="http://www.w3.org/1999/xlink">
    <!-- Generator: Sketch 52.5 (67469) - http://www.bohemiancoding.com/sketch -->
    <title>Shape</title>
    <desc>Created with Sketch.</desc>
    <g id="Page-1" stroke="none" stroke-width="1" fill="none" fill-rule="evenodd">
        <g id="Artboard" fill="#FFFFFF" fill-rule="nonzero">
            <g id="complex-wide">
                <path d="M28.9780206,54.5452442 L12.0890746,54.5452442 C4.30475578,54.5452442 0.178791774,48.7688946 0.178791774,39.966838 L0.178791774,15.0735219 C0.178791774,6.2714653 2.04922879,0 13.2993573,0 L17.5903599,0 C25.5397172,0 29.005527,6.2714653 29.005527,15.1560411 L29.005527,20.0521851 L16.0775064,20.0521851 L16.0775064,12.1303342 C16.0775064,11.4426735 15.4998715,10.8100257 14.7847044,10.8100257 L14.6196658,10.8100257 C13.9320051,10.8100257 13.2718509,11.4426735 13.2718509,12.1303342 L13.2718509,42.0023136 C13.2718509,42.8550129 13.987018,43.377635 14.7021851,43.377635 L28.7854756,43.377635 L28.9780206,54.5452442 Z M102.447686,0.550128535 L102.447686,54.5452442 L89.4921594,54.5452442 L89.4921594,30.1470437 L86.5214653,54.5452442 L77.8294344,54.5452442 L74.6386889,30.1470437 L74.6386889,54.5452442 L61.7381748,54.5452442 L61.683162,0.550128535 L78.8471722,0.550128535 L82.0654242,24.9758355 L85.2286632,0.550128535 L102.447686,0.550128535 Z M135.125321,0.550128535 L148.245887,0.550128535 L148.245887,43.3501285 L157.267995,43.3501285 L157.267995,54.5452442 L135.125321,54.5452442 L135.125321,0.550128535 Z M213.65617,0.550128535 L206.72455,26.6262211 L213.821208,54.5452442 L200.26054,54.5452442 L197.784961,40.6544987 L194.924293,54.5452442 L183.124036,54.5452442 L190.220694,28.4691517 L183.289075,0.550128535 L196.849743,0.550128535 L199.077763,14.1933162 L201.855913,0.550128535 L213.65617,0.550128535 Z M43.4739075,12.377892 L43.4739075,42.6349614 C43.4739075,43.4601542 44.1340617,44.1203085 45.0142674,44.1203085 C45.8394602,44.1203085 46.4996144,43.4601542 46.4996144,42.6349614 L46.4996144,12.377892 C46.4996144,11.5526992 45.8394602,10.892545 44.9592545,10.892545 C44.1340617,10.892545 43.4739075,11.5526992 43.4739075,12.377892 Z M59.6476864,43.4326478 C59.6476864,51.2169666 55.8793059,55.0128535 48.0674807,55.0128535 L41.9060411,55.0128535 C34.1217224,55.0128535 30.3258355,51.244473 30.3258355,43.4326478 L30.3258355,11.6627249 C30.3258355,3.87840617 34.0942159,0.0825192802 41.9060411,0.0825192802 L48.0674807,0.0825192802 C55.8517995,0.0825192802 59.6476864,3.85089974 59.6476864,11.6627249 L59.6476864,43.4326478 Z M117.686247,10.9750643 L117.686247,23.7655527 L119.034062,23.7655527 C119.776735,23.7655527 120.381877,23.1053985 120.381877,22.2802057 L120.381877,12.4604113 C120.381877,11.6352185 119.776735,10.9750643 119.034062,10.9750643 L117.686247,10.9750643 Z M117.74126,33.5028278 L117.74126,54.5452442 L104.620694,54.5452442 L104.620694,0.550128535 L121.757198,0.550128535 C129.541517,0.550128535 133.337404,4.318509 133.337404,12.1303342 L133.337404,21.9501285 C133.337404,29.7344473 129.569023,33.5303342 121.757198,33.5303342 L117.74126,33.5028278 Z M158.725835,0.412596401 L181.886247,0.412596401 L181.886247,11.6077121 L171.846401,11.6077121 L171.846401,21.4825193 L181.501157,21.4825193 L181.501157,32.677635 L171.846401,32.677635 L171.846401,43.2676093 L182.051285,43.2676093 L182.051285,54.4627249 L158.725835,54.4627249 L158.725835,0.412596401 Z" id="Shape"></path>
            </g>
        </g>
    </g>
</svg>