<?xml version="1.0" encoding="UTF-8"?>
<svg width="87px" height="28px" viewBox="0 0 87 28" version="1.1" xmlns="http://www.w3.org/2000/svg" xmlns:xlink="http://www.w3.org/1999/xlink">
    <!-- Generator: Sketch 52.4 (67378) - http://www.bohemiancoding.com/sketch -->
    <title>Vice</title>
    <desc>Created with Sketch.</desc>
    <g id="Page-3" stroke="none" stroke-width="1" fill="none" fill-rule="evenodd">
        <g id="Desktop-HD" transform="translate(-483.000000, -1671.000000)" fill="#FFFFFF" fill-rule="nonzero">
            <g id="Press-logos" transform="translate(246.000000, 1668.000000)">
                <g id="Vice" transform="translate(237.340967, 3.300000)">
                    <g id="svg2">
                        <g id="layer1" transform="translate(0.044440, 0.086452)">
                            <path d="M26.7462738,27.3358309 C23.601956,27.0506856 21.5177875,25.5690899 21.0928797,23.3169356 C21.0038814,22.8452174 21.0210925,21.7191786 21.1238021,21.2938032 C21.1510841,21.1808096 21.1659323,21.088361 21.156796,21.088361 C21.1476562,21.088361 20.6677746,21.4352898 20.0903826,21.859315 C17.8562695,23.4999983 16.0178807,24.6528491 14.1549226,25.5814295 C12.0056546,26.6527224 10.755063,26.9702392 8.67213083,26.9734699 C7.25879387,26.9756691 6.39070556,26.8138642 5.46931023,26.3765088 C4.04514621,25.700506 3.37933554,24.6786383 3.37933554,23.1688717 C3.37933554,22.4312132 3.44721983,22.1219001 3.73096101,21.5666599 C3.86599224,21.302428 3.97647141,21.0599242 3.97647141,21.0277624 C3.97647141,20.9956022 3.77853043,20.6115539 3.53660219,20.1743263 C2.67467505,18.6165888 1.61629879,16.277433 0.789742201,14.1033895 C-1.10873218,9.10995295 1.12853948,4.75727318 6.77215259,2.46441817 C7.16029065,2.30672579 8.12520855,1.86289063 8.91641345,1.47811636 C10.5451066,0.686057076 10.6948866,0.620867618 11.4225592,0.387361368 C12.8567255,-0.072852387 14.1677199,0.0732840533 15.2315577,0.811950889 C15.8086308,1.21263816 16.3797399,2.08519538 16.5158034,2.77405437 C16.5503183,2.94880814 16.5950909,3.15658063 16.6152977,3.23577452 L16.6520367,3.37976184 L17.0863175,3.24878213 C18.8272663,2.72371495 20.8277351,2.27648136 22.3519697,2.07157061 C23.4355805,1.92589602 25.8274746,1.89327196 26.705476,2.01219365 L27.2047466,2.07981745 L27.5982638,1.82291291 C29.6928684,0.455463551 33.2059114,0.414747971 38.3057831,1.69881225 C39.9241928,2.10630185 40.8211801,2.3797548 41.6993838,2.7333734 C43.3662683,3.40456424 43.4371191,3.40118063 44.8451918,2.58310049 C46.2140133,1.78782553 48.5609325,0.898767306 50.4398293,0.463743122 C51.6948554,0.173164685 52.4918253,0.0861895467 53.9187415,0.0840821899 C55.5204391,0.0817073431 56.1380887,0.163860503 57.2250708,0.523803047 C58.2935162,0.877606109 58.5711013,0.911011491 59.4599332,0.792743613 C60.4224624,0.664669305 63.2848653,0.618183343 64.9386112,0.703766988 C68.9301812,0.910335861 71.7168907,1.32240535 78.8627327,2.76272125 C82.0167115,3.39843584 84.5287167,3.87517788 85.5669392,4.03508178 L85.865508,4.08106584 L85.8597121,4.2804251 C85.8565055,4.39007363 85.8076689,4.54080292 85.7511415,4.61537873 C85.2808162,5.2359018 83.1571995,7.8725146 82.6432351,8.47406174 C81.7804609,9.48384895 80.6406536,10.6253012 79.8530686,11.2682488 L79.207722,11.7950812 L79.2446787,12.3740016 C79.2865979,13.0306374 79.2087749,13.828412 79.0591715,14.275623 L78.9612462,14.5683668 L79.4168124,15.1576391 C79.9104053,15.7960944 80.3294847,16.4615101 80.5147432,16.9009402 L80.6317282,17.1784239 L80.5222899,17.6679168 C79.7877479,20.9532812 78.1311349,23.1163523 75.4012751,24.3545305 C73.3031673,25.3061621 67.5216764,26.6209373 63.5272016,27.0548284 C61.3394645,27.2924665 58.3788259,27.3451359 56.9587071,27.1716835 C54.652824,26.8900417 53.0204682,26.368854 51.7589946,25.5114934 L51.309226,25.2058065 L50.8632917,25.4449312 C49.4841523,26.1844752 47.5015034,26.7599059 45.2874154,27.0632418 C44.2209317,27.2093503 41.6468056,27.2695875 40.5581893,27.1739083 C37.9900049,26.9481922 35.7754814,26.2854957 34.3126802,25.3049448 C34.1343493,25.1854063 33.9748191,25.0876012 33.958167,25.0876012 C33.9415166,25.0876012 33.7658933,25.2416815 33.5678923,25.4300002 C32.5901668,26.3599275 31.0975218,26.9994091 29.3213345,27.2493238 C28.5947695,27.3515513 27.372439,27.3926175 26.7462755,27.3358309 L26.7462738,27.3358309 Z M29.0290332,24.2637084 C30.1340066,24.1370164 30.9414555,23.8474419 31.2969117,23.4503754 C31.5687147,23.1467547 31.7416286,22.8277291 32.095864,21.9763031 C32.2677079,21.5632622 32.6779682,20.6753423 33.007552,20.0031413 L33.6067953,18.7809596 L33.6423768,19.1539878 C33.8442772,21.2705696 35.0352737,22.5739632 37.531479,23.4101121 C40.1940855,24.3020026 42.4621098,24.4632569 45.2331292,23.957689 C47.596421,23.5265103 50.2570658,22.5128462 52.7105339,21.1089112 C53.046224,20.9168231 53.328259,20.759657 53.3372787,20.759657 C53.3462984,20.759657 53.3436233,21.0640312 53.3313627,21.4360468 C53.2787296,23.0315448 53.7387936,23.4450051 56.0791967,23.905543 C58.2693379,24.3365137 60.8182826,24.3826059 63.5000534,24.0397397 C65.8854091,23.7347688 71.3871268,22.5049187 73.2713669,21.8554655 C75.670295,21.0286114 76.7985721,19.93833 77.2967298,17.9656694 L77.4281531,17.44522 L77.3122279,17.3498766 C77.1338147,17.2031425 76.5775829,17.0504857 76.0670481,17.0081391 C75.0408049,16.923018 73.7015219,17.1512419 71.0999629,17.8545733 C68.5559584,18.5423463 67.3646773,18.7592552 65.7800263,18.8232261 C64.0850779,18.89165 62.1146758,18.5373972 61.8959346,18.1249137 C61.7680437,17.8837517 61.8826452,17.5298655 62.1538582,17.3284621 C63.0489439,16.663771 64.4485815,16.4441053 68.3857093,16.3504003 C72.427522,16.2542045 73.8108196,15.9725985 75.005352,15.0028137 C75.8716158,14.2995318 76.377303,13.3048495 76.2622403,12.5305096 C76.1161385,11.5472737 74.7584406,10.9401414 72.8949218,11.0247136 C71.9976807,11.0654338 71.3602066,11.1846671 69.4985535,11.6599638 C68.6774927,11.8695896 67.7370034,12.0812527 67.4085788,12.1303301 C66.5390501,12.2602664 64.8407973,12.245915 64.6176681,12.106747 C64.5690664,12.0764314 64.5798917,12.0182145 64.6599457,11.8794436 C64.7191327,11.7768376 64.8571528,11.4730959 64.966646,11.2044604 C65.177885,10.6862102 65.3547789,10.3699481 65.5026949,10.2460588 C65.6276038,10.1414411 67.5083698,10.1956551 69.3085553,10.3557621 C70.9053726,10.4977858 73.0480216,10.5265209 73.8142166,10.4161937 C76.2015769,10.0724171 77.9664999,9.12951091 79.5669799,7.34278228 C79.7924481,7.09108279 80.0743287,6.78974117 80.1933869,6.67313688 C80.3289806,6.54034015 80.4098542,6.41131642 80.4098542,6.32780177 C80.4098542,6.18404273 80.3663831,6.16170366 79.9755734,6.10464051 C79.4127347,6.02245888 77.5331416,5.67125451 75.5784828,5.28304157 C70.9191079,4.35764512 68.7870888,4.01214925 66.051452,3.73917639 C64.6926961,3.60359498 60.7907777,3.59941862 59.7737789,3.7324576 C58.8075474,3.85885724 58.7083412,3.91373086 57.4762605,5.00332998 C57.309578,5.15074113 57.1591653,5.25719035 57.1420159,5.2398821 C57.1248631,5.22257044 57.1847994,4.9663763 57.2751935,4.67054934 C57.3655944,4.37472458 57.456148,4.04064025 57.4764285,3.92814276 C57.5205684,3.68328344 57.5189668,3.68240698 56.5865987,3.44231373 C53.5359639,2.65674649 50.2846239,3.25574113 46.0745443,5.37894804 C42.2391949,7.31317085 39.5098753,9.14419302 37.0357374,11.4428264 L36.5383205,11.9049583 L36.9289604,11.2510827 C37.8600717,9.6925303 38.5962719,8.6544478 39.9834638,6.94406921 C40.9683245,5.72975433 41.0279093,5.64640574 40.9348882,5.61318294 C40.3551246,5.40611182 36.2947221,4.42734645 34.7018196,4.11069073 C33.2359953,3.81929789 32.0840372,3.7104803 31.1983571,3.77974382 C30.1232361,3.86382277 29.5215818,4.10760087 28.8508446,4.7309088 C28.152323,5.38003812 28.0001132,5.41724581 27.0438755,5.17262381 C25.5393145,4.78773089 23.5480454,4.85217328 20.9134119,5.37102257 C17.1668876,6.10884022 15.8328759,6.80929316 15.7169472,8.09954858 C15.6970987,8.32045195 15.7387059,8.6573699 15.8631707,9.28361852 C16.1618836,10.7865981 16.0639908,11.1097478 14.6193644,13.3894711 C13.9760773,14.4046251 13.6311565,14.850486 13.240671,15.1716307 C12.9023315,15.4498918 12.5572119,15.6356004 12.4950395,15.5728571 C12.3663186,15.4429531 12.2709054,14.141087 12.2990105,12.8981386 C12.3366497,11.2335177 12.6536471,9.25119581 13.3415268,6.37883267 C13.593123,5.32824907 13.6538669,4.31379536 13.5054811,3.64070532 L13.4114483,3.21416001 L12.9417661,3.24415246 C12.2340121,3.28934752 11.8690252,3.43202909 10.3821058,4.24477495 C9.97904063,4.46509083 9.14847834,4.84685383 8.53641369,5.09313754 C6.07505424,6.08354273 4.91854515,6.78117808 4.1544559,7.73643571 C3.41693529,8.65847634 3.11941079,9.64096902 3.17633599,10.9663994 C3.21225526,11.8027325 3.31368731,12.1637484 4.01153501,13.9390375 C5.13700506,16.8021701 5.86361117,18.2486018 7.21153996,20.3091863 C7.55208288,20.8297755 7.83070719,21.2793734 7.83070719,21.3082943 C7.83070719,21.3372136 7.54213894,21.6508621 7.18944516,22.0052922 C6.69065475,22.5065366 6.53386652,22.6998062 6.48374038,22.8752005 C6.38370588,23.2252201 6.40305705,23.313023 6.62000453,23.4934943 C6.9772716,23.7906911 7.37501065,23.8921429 8.30364917,23.9229494 C10.2880987,23.9887837 11.871762,23.461537 14.8176278,21.7542643 C18.0386901,19.8875001 19.8354427,18.2596236 23.685479,13.7199004 C24.2987645,12.9967502 25.01709,12.1339017 25.2817561,11.802458 C25.8916207,11.0387189 26.0965494,10.8177132 26.3782243,10.6199702 L26.6045292,10.4611026 L26.6688708,10.748292 C26.7042568,10.9062458 26.7452741,11.3929461 26.7600194,11.829848 C26.8064348,13.2051894 26.6164435,13.9766157 25.6983336,16.1406671 C24.3683122,19.2756182 23.8052265,21.6399938 24.1069247,22.8229231 C24.3079214,23.6110142 25.2406942,24.0705837 27.074767,24.2851536 C27.4441044,24.3283612 28.5731874,24.3159721 29.0290297,24.2637067 L29.0290332,24.2637084 Z M43.6860042,19.1177429 C42.5619917,18.865796 41.9565341,18.2407544 41.959751,17.3356514 C41.9615686,16.8494301 42.0356158,16.5800768 42.3361394,15.9681591 C42.9182402,14.7828941 43.7562017,13.7480797 45.570306,11.9742329 C46.2357755,11.32353 46.9867124,10.5573035 47.239051,10.2715104 C47.4913879,9.98571391 47.7070665,9.76118775 47.7183342,9.77255905 C47.7547079,9.80926944 47.4218729,10.9980192 46.9497317,12.5176807 C46.540929,13.8334719 46.156289,15.1794253 46.1560558,15.2949437 C46.1558843,15.4133553 47.9270628,15.2977738 50.5802089,15.0062541 C51.6550539,14.8881528 52.7735997,14.7747415 53.0658667,14.7542288 C53.5559529,14.7198336 53.6050502,14.7058624 53.6975037,14.5745162 C53.8286167,14.3882399 54.0473887,13.8587462 54.1637821,13.4459815 C54.2147605,13.2651931 54.2739595,13.0981304 54.2953323,13.0747314 C54.349718,13.0151915 54.5909414,13.4819725 54.7419955,13.9390375 C54.9055073,14.433812 54.9247848,15.5612607 54.7754781,15.8975683 C54.6871074,16.0966259 54.6755447,16.1030105 54.4034726,16.1030105 C53.3232741,16.1030105 51.9076137,16.517001 50.1459282,17.3480729 C46.9399455,18.8604871 46.2090508,19.1022595 44.7174209,19.1437605 C44.2695694,19.1562229 43.805431,19.1444424 43.6860042,19.1177429 L43.6860042,19.1177429 Z M55.8453176,8.9410098 C55.8667608,8.8877198 56.004894,8.49897802 56.1522784,8.07714012 C56.2996629,7.65530222 56.4596629,7.20422796 56.507829,7.07475176 L56.5954126,6.83934086 L56.7634857,7.00050668 C57.0230212,7.24937221 57.4252307,7.42626675 58.3384688,7.69319577 C59.1081602,7.9181686 59.7815296,8.17049223 59.7815296,8.23393626 C59.7815296,8.27914359 59.2442152,8.37896046 58.1003697,8.5462448 C57.0285273,8.70299833 56.2873731,8.85263924 55.9618087,8.97802365 C55.8228232,9.03155232 55.8104615,9.02762436 55.8453176,8.9410098 L55.8453176,8.9410098 Z" id="path4149"></path>
                        </g>
                    </g>
                </g>
            </g>
        </g>
    </g>
</svg>