<?xml version="1.0" encoding="UTF-8"?>
<svg width="95px" height="27px" viewBox="0 0 95 27" version="1.1" xmlns="http://www.w3.org/2000/svg" xmlns:xlink="http://www.w3.org/1999/xlink">
    <!-- Generator: Sketch 52.4 (67378) - http://www.bohemiancoding.com/sketch -->
    <title>Vogue</title>
    <desc>Created with Sketch.</desc>
    <g id="Page-3" stroke="none" stroke-width="1" fill="none" fill-rule="evenodd">
        <g id="Desktop-HD" transform="translate(-673.000000, -1724.000000)" fill="#FFFFFF" fill-rule="nonzero">
            <g id="Vogue" transform="translate(673.000000, 1724.000000)">
                <polygon id="Shape" points="16.7306363 0.612064957 16.7306363 0.868024611 18.931545 0.868024611 13.3332884 19.0233691 6.7028717 0.868024611 8.88555903 0.868024611 8.88555903 0.612064957 0 0.612064957 0 0.868024611 2.33764049 0.868024611 11.5158888 25.9632617 19.4064477 0.868024611 21.5255756 0.868024611 21.5255756 0.612064957"></polygon>
                <path d="M56.252299,0.173604922 L56.252299,8.89531534 L56.0511469,8.89531534 C55.6766767,7.17806137 55.14711,5.50700638 54.2249953,3.99090456 C53.1287017,2.21941698 51.3846179,0.228555902 49.1103934,0.228555902 C43.8867504,0.228555902 43.4119912,9.58944808 43.4119912,13.1601139 C43.4119912,16.3571705 43.6676639,19.6537989 44.8273734,22.6492729 C45.6403036,24.7488881 46.818378,25.7817657 49.0010653,25.7817657 C50.7362537,25.7817657 52.5806267,24.9049891 53.5033153,23.3979262 C53.7404797,23.0048043 53.7591315,22.5669182 53.7591315,22.1185584 L53.7591315,15.379244 L51.4752942,15.379244 L51.4752942,15.1148193 L59.8317169,15.1148193 L59.8317169,15.379244 L57.8775854,15.379244 L57.8775854,25.4615292 L57.7039805,25.4615292 C57.2108564,24.6397036 56.4347994,24.100524 55.4393689,24.100524 C54.7181193,24.100524 54.0143738,24.3564836 53.3846614,24.7039804 L52.8179345,25.0141737 C51.539858,25.5809005 50.3164454,25.9912394 48.9004893,25.9912394 C42.4162737,25.9912394 38.9645487,19.0778897 38.9645487,13.3433317 C38.9645487,9.15113152 40.5624314,4.66638553 43.9597793,2.0455251 C45.4834853,0.870033263 47.3285756,0.00215212713 49.2913155,0.00215212713 C50.0589076,0.00215212713 50.8165998,0.239603488 51.5286669,0.522679943 L52.0497686,0.723545142 C52.6427514,0.942488209 53.2916895,1.15325319 53.9305843,1.15325319 C54.72558,1.15325319 55.4377906,0.632151477 56.0495686,0.175757049 L56.2518686,0.175757049 L56.252299,0.173604922 Z" id="Shape"></path>
                <path d="M58.2336907,0.612064957 L67.1475144,0.612064957 L67.1475144,0.867881135 L64.7826136,0.867881135 L64.7826136,20.2198083 C64.7826136,23.2512946 67.9052066,25.0965284 70.6362559,25.0965284 C73.5762051,25.0965284 76.0514382,23.0501425 76.0514382,20.0464903 L76.0514382,0.868168086 L73.2569729,0.868168086 L73.2569729,0.612208432 L94.2186912,0.612208432 L94.2186912,9.58959156 L94.0450862,9.58959156 C93.7802311,7.214791 93.3241236,4.77614401 91.6892244,2.92258865 C90.0359603,1.04995109 87.7889961,0.868024611 85.4790463,0.868024611 L82.9854484,0.868024611 L82.9854484,12.4114607 C83.4972242,12.4662682 84.017752,12.5029978 84.5378494,12.5029978 C87.6703422,12.5029978 88.4832723,10.3474273 88.6205781,7.68065479 L88.848847,7.68065479 L88.848847,17.8087086 L88.6205781,17.8087086 C88.2275996,15.3888568 87.1588533,12.7943958 84.3184759,12.7943958 C83.8711204,12.7943958 83.4326604,12.8223735 82.9854484,12.8589596 L82.9854484,25.2058565 L86.7203933,25.2058565 C88.6565903,25.2058565 90.5840354,24.365953 91.9540795,23.0145606 C93.1225411,21.8628857 93.9350408,20.366153 94.2182607,18.7499055 C94.3735008,17.8457251 94.4468166,16.9234669 94.4925852,16.0098172 L94.6920157,16.0098172 L94.6920157,25.4618161 L76.7102761,25.4618161 L76.7102761,25.2058565 L78.8012828,25.2058565 L78.8012828,0.866733334 L76.4238997,0.866733334 L76.4238997,20.1182279 C76.4238997,24.0999501 72.6436166,25.8629726 69.1000676,25.8629726 C65.0907982,25.8629726 60.670616,23.9178801 60.670616,19.3332754 L60.670616,0.866589859 L58.2329734,0.866589859 L58.2329734,0.610630205 L58.2336907,0.612064957 Z" id="Shape"></path>
                <path d="M33.8199605,13.1325667 C33.8199605,9.50709335 32.5228018,0.448072869 27.6188214,0.448072869 C22.6966197,0.448072869 21.4178258,9.49762399 21.4178258,13.1325667 C21.4178258,16.7676529 22.7058021,25.8265299 27.6188214,25.8265299 C32.5228018,25.8265299 33.8198171,16.7574662 33.8198171,13.1321363 M27.6016044,26.2010001 C24.6518989,26.2010001 21.8298864,24.5473056 20.0034478,22.2921633 C17.9211931,19.7255365 16.9072542,16.4109737 16.9072542,13.1319928 C16.9072542,9.9812787 17.8388383,6.81219975 19.7657095,4.30081086 C21.6653204,1.83519054 24.5233452,0.0720245214 27.7027544,0.0720245214 C30.6247691,0.0720245214 33.4289908,1.7436534 35.2277386,3.97182236 C37.3010979,6.53801876 38.3328277,9.86190738 38.3328277,13.1410318 C38.3328277,16.28242 37.3922046,19.4513555 35.4742289,21.9628878 C33.5918351,24.4105738 30.7510272,26.2011435 27.6017479,26.2011435" id="Shape"></path>
            </g>
        </g>
    </g>
</svg>