<?xml version="1.0" encoding="UTF-8"?>
<svg width="188px" height="27px" viewBox="0 0 188 27" version="1.1" xmlns="http://www.w3.org/2000/svg" xmlns:xlink="http://www.w3.org/1999/xlink">
    <!-- Generator: Sketch 52.4 (67378) - http://www.bohemiancoding.com/sketch -->
    <title>Washington Post</title>
    <desc>Created with Sketch.</desc>
    <g id="Page-3" stroke="none" stroke-width="1" fill="none" fill-rule="evenodd">
        <g id="Desktop-HD" transform="translate(-789.000000, -1671.000000)" fill="#FFFFFF" fill-rule="nonzero">
            <g id="Press-logos" transform="translate(246.000000, 1668.000000)">
                <path d="M546.526186,13.006 C546.895186,12.006 547.404186,11.218 548.052186,10.642 C548.138889,10.6069402 548.230134,10.5843812 548.323186,10.575 C548.412186,10.566 548.637186,10.561 548.998186,10.561 C549.196186,10.561 549.371186,10.575 549.524186,10.602 C549.677186,10.629 549.835186,10.683 549.997186,10.764 C550.159186,10.846 550.348186,10.957 550.564186,11.101 L547.809186,13.289 L548.458186,13.803 L548.458186,21.096 C547.755331,20.7539484 547.171687,20.2082851 546.783186,19.53 C546.243186,18.594 545.973186,17.341 545.973186,15.775 C545.972186,14.929 546.156186,14.006 546.526186,13.006 L546.526186,13.006 Z M546.269186,10.211 C546.431186,10.211 546.638186,10.238 546.890186,10.292 C547.142186,10.346 547.376186,10.4 547.593186,10.454 C546.080186,11.121 544.909186,12.228 544.081186,13.776 C543.361786,15.1412078 542.990471,16.6628751 543.000186,18.206 C543.000186,20.186 543.688186,21.884 545.066186,23.298 C546.444186,24.712 548.124186,25.419 550.104186,25.419 C552.012186,25.419 553.625186,24.689 554.939186,23.231 C556.253186,21.772 556.911186,20.051 556.911186,18.071 C556.731186,18.485 556.528186,18.833 556.303186,19.11 C556.014593,19.4517232 555.693411,19.7645326 555.344186,20.044 C555.074186,20.276 554.830186,20.452 554.615186,20.569 C554.400186,20.686 554.120186,20.817 553.778186,20.962 L553.778186,11.237 C554.211186,11.057 554.557186,10.873 554.818186,10.683 C555.079186,10.495 555.363186,10.22 555.670186,9.859 C556.462186,8.977 556.903186,7.995 556.994186,6.915 C556.417186,7.293 555.899186,7.573 555.440186,7.752 C554.981186,7.932 554.463186,8.049 553.887186,8.104 C553.796186,8.104 553.670186,8.113 553.508186,8.13 C552.878186,8.13 551.937186,7.883 550.686186,7.387 C549.435186,6.892 548.448186,6.644 547.728186,6.644 C546.305186,6.644 545.162186,7.311 544.297186,8.643 C543.523186,9.831 543.135186,11.245 543.135186,12.883 C543.243186,12.379 543.504186,11.902 543.919186,11.452 C544.225149,11.1128348 544.580066,10.8212835 544.972186,10.587 C545.369186,10.337 545.801186,10.211 546.269186,10.211 L546.269186,10.211 Z M559.424186,25.284 L561.775186,22.663 L560.586186,21.421 L560.586186,14.397 L561.262186,13.939 L563.153186,15.37 L563.153186,24.634 C563.153186,25.157 563.121186,25.603 563.058186,25.972 C563.003001,26.3221075 562.859098,26.6522565 562.640186,26.931 L561.978186,27.755 C561.681186,28.124 561.307186,28.415 560.857186,28.632 C561.757186,28.542 562.496186,28.339 563.072186,28.025 C563.648186,27.711 564.243186,27.211 564.855186,26.527 C565.305186,26.021 565.643186,25.517 565.868186,25.013 C566.096622,24.4978474 566.246943,23.9515031 566.314186,23.392 L566.314186,13.02 L565.504186,13.074 L562.964186,11.372 L561.127186,12.884 L560.533186,12.56 L560.533186,7.428 L559.993186,6.266 L557.589186,8.616 L557.589186,21.934 L556.860186,22.797 L559.424186,25.284 L559.424186,25.284 Z M567.474186,22.339 L571.823186,25.093 L575.955186,20.745 L573.713186,22.339 L570.958186,20.366 L570.958186,18.53 L575.874186,14.856 L572.741186,10.642 L567.744186,14.127 L567.744186,21.744 L567.474186,22.339 L567.474186,22.339 Z M581.925186,8.752 L581.925186,13.803 C581.565186,13.839 581.273186,13.903 581.048186,13.992 C580.822186,14.082 580.584186,14.236 580.332186,14.451 C579.611186,15.01 579.251186,15.729 579.251186,16.612 C579.246136,16.8862993 579.282891,17.1597679 579.360186,17.423 C579.611186,17.208 579.859186,17.062 580.102186,16.991 C580.345186,16.919 580.647186,16.882 581.008186,16.882 C581.187186,16.882 581.332186,16.902 581.440186,16.937 C581.548186,16.974 581.711186,17.044 581.926186,17.154 L581.926186,22.123 L585.654186,25.879 L589.085186,22.393 L593.218186,25.879 L599.242186,20.045 L599.242186,10.049 L595.514186,7.186 L592.759186,9.671 L589.005186,7.186 L585.655186,9.996 L585.655186,8.348 C585.655186,7.808 585.268186,7.196 584.494186,6.512 C584.260186,6.35 584.039186,6.183 583.832186,6.012 C583.625186,5.841 583.503186,5.597 583.468186,5.283 C583.43615,5.02751089 583.418123,4.7704597 583.414186,4.513 C583.414186,3.901 583.621186,3.414 584.036186,3.054 C583.884332,3.02508321 583.730608,3.00703739 583.576186,3 C582.766186,3 582.050186,3.337 581.429186,4.013 C580.807186,4.689 580.497186,5.441 580.497186,6.269 C580.497186,6.395 580.515186,6.566 580.551186,6.782 C580.709186,7.663 581.168186,8.32 581.925186,8.752 L581.925186,8.752 Z M599.970186,22.474 L603.320186,24.824 L605.751186,22.529 L608.641186,24.554 L611.126186,21.88 L610.262186,21.88 L609.155186,20.745 L609.155186,12.831 L608.560186,12.938 L605.751186,10.588 L600.429186,14.261 L600.429186,22.013 L599.970186,22.474 L599.970186,22.474 Z M616.082186,11.115 C615.739794,10.9515844 615.418177,10.7478038 615.124186,10.508 L610.721186,13.614 L610.721186,18.855 L611.126186,19.179 L613.746186,19.179 L610.343186,25.093 C610.865186,24.644 611.271186,24.347 611.559186,24.202 C611.971212,24.0007992 612.424697,23.8990734 612.883186,23.905 C613.459186,23.905 613.926186,23.973 614.287186,24.108 C614.648186,24.243 615.016186,24.481 615.395186,24.823 L619.716186,21.421 L619.716186,16.1 L619.392186,15.775 L616.501186,15.775 L616.501186,15.505 L619.068186,10.993 C618.797186,11.156 618.581186,11.25 618.419186,11.277 C618.159515,11.3094654 617.897813,11.3228346 617.636186,11.317 L617.069186,11.317 C616.729382,11.3225481 616.392488,11.2535991 616.082186,11.115 L616.082186,11.115 Z M622.930186,24.905 L625.307186,22.259 L624.119186,21.015 L624.119186,13.993 L624.767186,13.534 L626.684186,14.992 L626.684186,24.23 C626.690998,24.6779005 626.659214,25.1255553 626.589186,25.568 C626.526186,25.918 626.378186,26.238 626.143186,26.527 C625.999186,26.707 625.801186,26.966 625.549186,27.31 C625.224703,27.6875729 624.830087,27.998647 624.387186,28.226 C625.215186,28.156 625.949186,27.953 626.589186,27.621 C627.228186,27.287 627.827186,26.797 628.385186,26.148 C628.799186,25.662 629.124186,25.154 629.358186,24.623 C629.592186,24.092 629.745186,23.547 629.817186,22.988 L629.817186,12.615 L629.034186,12.696 L626.468186,10.994 L624.631186,12.48 L624.037186,12.156 L624.037186,7.051 L623.524186,5.863 L621.093186,8.213 L621.093186,21.557 L620.364186,22.393 L622.930186,24.905 Z M635.923186,8.941 L633.492186,6.969 L631.520186,9.131 L633.573186,10.994 L635.923186,8.941 L635.923186,8.941 Z M632.114186,15.045 L632.114186,22.391 L631.601186,23.176 L632.519186,23.176 L634.626186,24.957 L636.841186,22.932 L639.677186,25.227 L642.161186,22.473 L641.378186,21.475 L641.378186,14.586 L642.026186,14.262 L643.458186,15.829 L643.458186,22.581 L645.970186,24.77 L648.402186,22.014 L647.267186,22.014 L646.619186,20.961 L646.619186,13.613 L646.943186,12.938 L646.295186,13.073 L643.811186,11.101 L641.379186,13.613 L638.543186,11.371 L636.193186,13.991 L637.112186,13.991 L637.895186,14.909 L637.895186,21.661 L636.329186,22.202 L635.329186,21.419 L635.329186,13.855 L635.653186,13.396 L632.844186,11.316 L630.548186,13.747 L631.331186,13.99 L632.114186,15.045 L632.114186,15.045 Z M680.682186,22.149 L679.901186,21.149 L679.901186,14.262 L680.547186,13.938 L681.979186,15.505 L681.979186,22.286 L684.493186,24.446 L686.923186,21.69 L685.788186,21.69 L685.140186,20.637 L685.140186,13.289 L685.464186,12.641 L684.816186,12.749 L682.332186,10.777 L679.902186,13.289 L677.064186,11.047 L674.714186,13.668 L675.632186,13.668 L676.415186,14.586 L676.415186,21.366 L675.442186,22.663 L678.440186,24.634 L680.682186,22.149 L680.682186,22.149 Z M648.916186,22.204 C649.275186,22.204 649.604186,22.249 649.902186,22.339 C650.199186,22.429 650.490186,22.587 650.779186,22.812 C651.068186,23.039 651.279186,23.253 651.414186,23.46 C651.549186,23.667 651.662186,23.95 651.752186,24.31 L650.348186,26.121 L648.862186,28.121 C649.241186,27.904 649.565186,27.773 649.835186,27.728 C650.105186,27.683 650.501186,27.662 651.024186,27.662 C651.635186,27.715 652.157186,27.859 652.588186,28.094 C653.022186,28.328 653.416186,28.678 653.777186,29.147 C654.642186,28.823 655.646186,28.102 656.789186,26.987 C657.934186,25.87 658.506186,24.952 658.506186,24.231 C658.506186,24.106 658.375186,23.717 658.113186,23.071 C657.850941,22.4178025 657.718145,21.719863 657.722186,21.016 L657.722186,12.616 L653.966186,10.265 L649.239186,13.615 L649.239186,21.612 L648.916186,22.204 L648.916186,22.204 Z M658.234186,12.966 L659.802186,12.966 L659.802186,22.339 L659.423186,23.069 L660.341186,23.069 L662.314186,24.581 L664.853186,21.69 L663.746186,21.69 L663.016186,20.907 L663.016186,13.155 L664.610186,11.183 L663.016186,11.183 L663.016186,6.023 L659.803186,9.022 L659.803186,11.075 L658.234186,12.966 L658.234186,12.966 Z M665.070186,22.204 L668.418186,24.581 L674.254186,20.503 L674.254186,12.561 L673.660186,12.696 L670.849186,10.319 L665.529186,13.992 L665.529186,21.745 L665.070186,22.204 L665.070186,22.204 Z M692.486186,8.806 L692.486186,11.318 C692.017186,11.318 691.621186,11.368 691.297186,11.467 C690.973186,11.566 690.664186,11.759 690.365186,12.048 C690.068186,12.336 689.894186,12.669 689.840186,13.047 C689.786186,13.425 689.758186,13.921 689.758186,14.533 C689.758186,14.785 689.748186,14.956 689.731186,15.046 C690.127186,14.416 690.676186,14.155 691.379186,14.263 C691.848186,14.335 692.217186,14.534 692.486186,14.857 L692.486186,19.045 C691.658186,19.477 690.937186,20.045 690.326186,20.746 C689.640186,21.557 689.181186,22.392 688.947186,23.258 C689.252636,23.0187207 689.578179,22.8062649 689.920186,22.623 C690.190186,22.488 690.568186,22.35 691.055186,22.205 C691.235186,22.15 691.442186,22.092 691.676186,22.029 C691.910186,21.966 692.180186,21.935 692.487186,21.935 L692.487186,30.011 L696.026186,27.12 L697.214186,27.983 L697.214186,23.391 L698.728186,23.905 L703.833186,20.366 L703.833186,8.482 L700.563186,5.862 L697.213186,8.671 L697.213186,7.185 L696.567186,6.645 L696.567186,9.022 L696.026186,9.4 L696.026186,6.915 L693.270186,4.808 L690.002186,8.023 C690.272186,7.86 690.551186,7.779 690.838186,7.779 C691.072186,7.779 691.297186,7.816 691.514186,7.887 C692.000186,8.068 692.324186,8.374 692.486186,8.806 L692.486186,8.806 Z M704.291186,22.474 L707.641186,24.824 L713.502186,20.746 L713.502186,12.832 L712.908186,12.939 L710.072186,10.589 L704.750186,14.262 L704.750186,22.014 L704.291186,22.474 L704.291186,22.474 Z M719.797186,10.994 C719.448719,10.8226642 719.114344,10.6240453 718.797186,10.4 L714.420186,13.479 L714.420186,18.72 L714.799186,19.044 L717.420186,19.044 L714.016186,24.958 C714.393186,24.634 714.709186,24.392 714.961186,24.229 C715.428186,23.924 715.969186,23.77 716.582186,23.77 C717.141186,23.77 717.598186,23.838 717.959186,23.973 C718.318186,24.108 718.688186,24.346 719.066186,24.688 L723.388186,21.286 L723.388186,15.964 L723.064186,15.64 L720.173186,15.64 L720.173186,15.369 L722.739186,10.858 C722.469186,11.02 722.253186,11.114 722.091186,11.142 C721.929186,11.17 721.667186,11.183 721.308186,11.183 L720.742186,11.183 C720.381186,11.183 720.066186,11.12 719.797186,10.994 L719.797186,10.994 Z M723.469186,13.101 L725.037186,13.101 L725.037186,22.474 L724.658186,23.204 L725.576186,23.204 L727.521186,24.716 L730.087186,21.825 L728.980186,21.825 L728.250186,21.042 L728.250186,13.29 L729.816186,11.318 L728.250186,11.318 L728.250186,6.159 L725.037186,9.157 L725.037186,11.21 L723.469186,13.101 L723.469186,13.101 Z M603.643186,13.344 L605.750186,14.911 L605.750186,21.204 L605.074186,21.934 L603.642186,20.692 L603.642186,13.344 L603.643186,13.344 L603.643186,13.344 Z M655.939186,24.419 C656.371186,24.726 656.587186,25.112 656.587186,25.581 C656.587186,25.796 656.567186,25.958 656.532186,26.065 C656.425186,26.227 656.343186,26.335 656.288186,26.389 C656.142256,26.5346577 655.953226,26.6293477 655.749186,26.659 C655.515186,26.696 655.208186,26.583 654.831186,26.323 C654.452186,26.061 653.884186,25.93 653.130186,25.93 C652.642186,25.93 652.202186,25.975 651.806186,26.065 C651.410186,26.155 650.995186,26.309 650.562186,26.526 L654.507186,21.663 L654.507186,22.286 C654.507186,22.645 654.538186,22.942 654.601186,23.177 C654.665186,23.411 654.804186,23.636 655.019186,23.853 C655.326186,24.05 655.633186,24.239 655.939186,24.419 L655.939186,24.419 Z M652.455186,13.02 L654.508186,14.533 L654.508186,20.638 L653.912186,21.286 L652.455186,19.827 L652.455186,13.02 Z M570.958186,17.747 L570.958186,13.803 L572.930186,16.288 L570.958186,17.747 Z M617.231186,13.29 L615.394186,16.559 L614.016186,16.559 L614.016186,13.02 C614.556186,13.362 615.141186,13.533 615.771186,13.533 C616.276186,13.533 616.762186,13.452 617.231186,13.29 L617.231186,13.29 Z M668.742186,13.074 L670.849186,14.668 L670.849186,20.962 L670.175186,21.691 L668.741186,20.421 L668.741186,13.074 L668.742186,13.074 Z M614.529186,18.53 L616.501186,18.53 L616.501186,22.014 C616.223769,21.9158413 615.93928,21.8389523 615.650186,21.784 C615.461186,21.759 615.069186,21.745 614.475186,21.745 C614.130165,21.7401282 613.785777,21.7760438 613.449186,21.852 C613.161186,21.924 612.819186,22.041 612.423186,22.204 L614.529186,18.53 L614.529186,18.53 Z M696.025186,11.183 L696.566186,10.724 L696.566186,26.147 L696.025186,25.823 L696.025186,11.183 Z M697.213186,10.319 L698.861186,9.266 L700.050186,10.13 L700.050186,20.287 C699.489186,19.963 699.185186,19.793 699.130186,19.773 L698.536186,19.584 C698.094118,19.479023 697.652775,19.3710205 697.212186,19.26 L697.212186,10.319 L697.213186,10.319 L697.213186,10.319 Z M552.887186,11.507 C553.067186,11.507 553.211186,11.489 553.319186,11.454 L553.319186,21.287 C552.638985,21.6240387 551.890308,21.7999162 551.131186,21.801 C550.681186,21.801 550.231186,21.746 549.780186,21.639 C549.329186,21.532 548.978186,21.387 548.727186,21.205 L551.806186,18.125 L551.806186,11.373 C551.934122,11.4456511 552.077255,11.4874267 552.224186,11.495 C552.377186,11.504 552.481186,11.508 552.536186,11.508 L552.887186,11.507 Z M707.965186,13.344 L710.072186,14.911 L710.072186,21.204 L709.424186,21.934 L707.965186,20.692 L707.965186,13.344 Z M585.653186,10.778 L586.653186,9.995 L588.733186,12.102 L588.733186,21.8 L587.896186,22.663 L585.654186,20.503 L585.654186,10.778 L585.653186,10.778 L585.653186,10.778 Z M720.228186,13.344 C720.462186,13.309 720.687186,13.245 720.902186,13.155 L719.066186,16.423 L717.689186,16.423 L717.689186,12.884 C718.22313,13.2201044 718.841264,13.3982991 719.472186,13.398 C719.742186,13.398 719.994186,13.38 720.228186,13.344 L720.228186,13.344 Z M718.201186,18.396 L720.174186,18.396 L720.174186,21.88 C719.897861,21.7796952 719.613502,21.7030856 719.324186,21.651 C719.133186,21.624 718.742186,21.61 718.148186,21.61 C717.802793,21.6041883 717.457963,21.6401151 717.121186,21.717 C716.779127,21.8078955 716.44476,21.9255928 716.121186,22.069 L718.201186,18.396 L718.201186,18.396 Z M592.757186,10.778 L593.730186,9.995 L595.837186,12.102 L595.837186,21.8 L594.972186,22.663 L592.757186,20.503 L592.757186,10.778 L592.757186,10.778 Z" id="Washington-Post"></path>
            </g>
        </g>
    </g>
</svg>